<svg width="50" height="50" viewBox="0 0 50 50" fill="none" xmlns="http://www.w3.org/2000/svg">
<path d="M42.6777 7.32229C37.9558 2.60047 31.6777 0 25 0C18.3223 0 12.0442 2.60047 7.32229 7.32229C2.60037 12.0441 0 18.3223 0 25C0 31.6777 2.60047 37.9558 7.32229 42.6777C12.0441 47.3996 18.3222 50 25 50C31.6778 50 37.9558 47.3995 42.6777 42.6777C47.3996 37.9559 50 31.6778 50 25C50 18.3222 47.3995 12.0442 42.6777 7.32229ZM25 48.1529C12.2334 48.1529 1.84715 37.7666 1.84715 25C1.84715 12.2334 12.2334 1.84715 25 1.84715C37.7666 1.84715 48.1529 12.2334 48.1529 25C48.1529 37.7666 37.7666 48.1529 25 48.1529Z" fill="url(#paint0_linear)"/>
<path d="M5.76391 22.0786L3.93739 21.8036C3.78039 22.8463 3.70014 23.9137 3.69911 24.9764L5.54626 24.9784C5.54728 24.0068 5.62055 23.0313 5.76391 22.0786Z" fill="#F6977F"/>
<path d="M5.75757 27.879L3.93044 28.15C4.0859 29.1983 4.32193 30.243 4.63235 31.255L6.39833 30.7137C6.1152 29.7896 5.8996 28.836 5.75757 27.879Z" fill="#F5887A"/>
<path d="M7.47592 16.542L5.81298 15.7379C5.3515 16.6923 4.95908 17.689 4.6463 18.7001L6.41104 19.2458C6.69643 18.323 7.05467 17.4132 7.47592 16.542Z" fill="#F6AB84"/>
<path d="M20.6828 6.02694L20.2747 4.22546C19.2405 4.45964 18.2159 4.77468 17.229 5.16145L17.9032 6.88115C18.8038 6.52803 19.7389 6.2407 20.6828 6.02694Z" fill="#F7D18E"/>
<path d="M38.2849 8.34857C37.4572 7.68729 36.5733 7.08327 35.658 6.55334L34.7324 8.15195C35.5683 8.6359 36.3758 9.18769 37.132 9.7917L38.2849 8.34857Z" fill="#F7C58B"/>
<path d="M42.6024 13.0014C42.0055 12.1274 41.3374 11.2905 40.6165 10.5138L39.2626 11.7703C39.9212 12.48 40.5317 13.2447 41.0769 14.043L42.6024 13.0014Z" fill="#F7B988"/>
<path d="M43.5953 19.2665L45.3607 18.7227C45.0489 17.7107 44.6573 16.713 44.1965 15.7574L42.5327 16.5597C42.9533 17.4321 43.3109 18.3427 43.5953 19.2665Z" fill="#F6AB84"/>
<path d="M25.0002 5.54636C25.0016 5.54636 25.0027 5.54636 25.004 5.54636C25.4904 5.54636 25.9824 5.56473 26.4662 5.60065L26.6035 3.75874C26.0742 3.71923 25.5361 3.69922 25.0041 3.69922C25.0027 3.69922 25.0013 3.69922 25 3.69922C24.4742 3.69922 23.9433 3.71851 23.4225 3.75689L23.5576 5.59901C24.0337 5.56412 24.5191 5.54636 25.0002 5.54636Z" fill="#F7D18E"/>
<path d="M5.79338 34.2216C6.25209 35.1754 6.78745 36.1034 7.38459 36.9798L8.91106 35.9397C8.36574 35.1393 7.87686 34.2918 7.45797 33.421L5.79338 34.2216Z" fill="#F57976"/>
<path d="M32.7932 5.17005C31.8072 4.78214 30.7835 4.46628 29.7508 4.23108L29.3407 6.03215C30.2832 6.24673 31.2172 6.53498 32.1171 6.88902L32.7932 5.17005Z" fill="#F7D18E"/>
<path d="M15.2836 8.14288L14.3596 6.54346C13.4433 7.07266 12.5584 7.67627 11.7296 8.33724L12.8813 9.7813C13.6384 9.17759 14.4466 8.62632 15.2836 8.14288Z" fill="#F7C58B"/>
<path d="M9.3956 10.5006C8.67429 11.2766 8.00573 12.1127 7.40849 12.9856L8.93289 14.0287C9.47852 13.2312 10.0894 12.4673 10.7484 11.7583L9.3956 10.5006Z" fill="#F7B988"/>
<path d="M10.7229 38.2141L9.3676 39.4691C10.087 40.246 10.8707 40.9753 11.6971 41.6369L12.8515 40.195C12.0965 39.5904 11.3803 38.924 10.7229 38.2141Z" fill="#F56B72"/>
<path d="M37.1024 40.2321L38.2525 41.6776C39.0809 41.0184 39.867 40.2913 40.5889 39.5165L39.2372 38.2573C38.5777 38.9654 37.8594 39.6299 37.1024 40.2321Z" fill="#F56B72"/>
<path d="M41.0551 35.9892L42.5783 37.0341C43.1775 36.1603 43.7154 35.2349 44.1769 34.2831L42.5149 33.4771C42.0934 34.3461 41.6022 35.1914 41.0551 35.9892Z" fill="#F57775"/>
<path d="M43.5827 30.7741L45.3468 31.3217C45.6604 30.3113 45.9 29.2674 46.0591 28.2191L44.2328 27.9419C44.0877 28.899 43.8689 29.8518 43.5827 30.7741Z" fill="#F5887A"/>
<path d="M46.0661 21.8274L44.2392 22.1004C44.3816 23.053 44.4537 24.0286 44.4537 25.0001V25.0445H46.3009V25.0001C46.3009 23.9375 46.222 22.8701 46.0661 21.8274Z" fill="#F69A7F"/>
<path d="M32.0771 43.1266L32.7494 44.8471C33.7357 44.4616 34.7017 43.9978 35.6206 43.4682L34.6982 41.8677C33.8593 42.3513 32.9774 42.7748 32.0771 43.1266Z" fill="#F4616F"/>
<path d="M14.3219 43.4348C15.2383 43.9668 16.2016 44.4332 17.1852 44.8213L17.863 43.103C16.9653 42.7488 16.0859 42.3229 15.2491 41.8372L14.3219 43.4348Z" fill="#F46270"/>
<path d="M26.4214 44.4025L26.5543 46.2448C27.6125 46.1686 28.6719 46.012 29.7028 45.7798L29.2968 43.9777C28.3554 44.1899 27.3881 44.3328 26.4214 44.4025Z" fill="#F45E6E"/>
<path d="M20.2266 45.7635C21.2564 45.9994 22.3153 46.1595 23.3735 46.2395L23.5125 44.3976C22.546 44.3246 21.5791 44.1783 20.6388 43.9631L20.2266 45.7635Z" fill="#F45D6E"/>
<path d="M37.9235 17.8283L25.0002 10.4614L12.0765 17.8283V32.588L25.0002 39.9553L37.9235 32.588V17.8283ZM17.8987 33.2978L14.3431 31.271V20.335L17.8987 22.3373V33.2978ZM23.8954 36.7166L20.1652 34.5899V30.0917L23.8954 32.2025V36.7166ZM23.8954 29.5982L20.1652 27.4872V23.6139L23.8954 25.7149V29.5982ZM15.5889 18.4352L25.0002 13.0705L34.4155 18.4378L25.0275 23.7509L15.5889 18.4352ZM29.8925 34.5573L26.1623 36.6838V32.2026L29.8925 30.0918V34.5573ZM29.8925 27.487L26.1623 29.598V25.7133L29.8925 23.6022V27.487ZM35.6568 31.2711L32.1591 33.2652V22.3193L35.6568 20.3398V31.2711Z" fill="url(#paint1_linear)"/>
<defs>
<linearGradient id="paint0_linear" x1="25" y1="0" x2="25" y2="50" gradientUnits="userSpaceOnUse">
<stop stop-color="#F7D18E"/>
<stop offset="1" stop-color="#F45A6D"/>
</linearGradient>
<linearGradient id="paint1_linear" x1="25" y1="10.4614" x2="25" y2="39.9553" gradientUnits="userSpaceOnUse">
<stop stop-color="#F7D18E"/>
<stop offset="1" stop-color="#F45A6D"/>
</linearGradient>
</defs>
</svg>
