<svg width="43" height="52" viewBox="0 0 43 52" fill="none" xmlns="http://www.w3.org/2000/svg">
<path d="M7.64318 42.8135L0 38.2653V29.0796H2.4034V36.807L8.83323 40.6333L7.64318 42.8135Z" fill="black" fill-opacity="0.1"/>
<path d="M2.4034 21.9831H0V12.7975L7.64299 8.24792L8.83333 10.428L2.4034 14.2554V21.9831Z" fill="black" fill-opacity="0.1"/>
<path d="M15.0581 6.7215L13.8683 4.54117L21.5003 0L29.132 4.54117L27.9419 6.7215L21.5003 2.88832L15.0581 6.7215Z" fill="black" fill-opacity="0.1"/>
<path d="M43 21.9831H40.5966V14.2554L34.1668 10.428L35.357 8.24792L43 12.7975V21.9831Z" fill="black" fill-opacity="0.1"/>
<path d="M35.357 42.8135L34.1668 40.6333L40.5966 36.807V29.0796H43V38.2653L35.357 42.8135Z" fill="black" fill-opacity="0.1"/>
<path d="M21.5003 51.0626L13.8681 46.5199L15.0583 44.34L21.5003 48.174L27.9419 44.34L29.1321 46.5199L21.5003 51.0626Z" fill="black" fill-opacity="0.1"/>
<path d="M21.5002 6.4165L5.45651 15.9653V35.0969L21.5002 44.6463L37.5434 35.0969V15.9653L21.5002 6.4165ZM33.1885 16.7553L21.5339 23.6421L9.81687 16.752L21.5001 9.7983L33.1885 16.7553ZM20.1289 26.1877V31.2213L15.498 28.485V23.4645L20.1289 26.1877ZM15.4979 31.861L20.1288 34.5973V40.4482L15.4979 37.6916V31.861ZM22.9426 34.5972L27.5734 31.8609V37.6493L22.9426 40.4056V34.5972V34.5972ZM27.5734 28.4849L22.9426 31.2211V26.1858L27.5734 23.4493V28.4849ZM8.27045 19.2144L12.6841 21.81V36.0168L8.27045 33.3896V19.2144V19.2144ZM30.3873 35.9744V21.7865L34.7295 19.2207V33.3898L30.3873 35.9744Z" fill="black" fill-opacity="0.1"/>
</svg>
