<svg width="50" height="50" viewBox="0 0 50 50" fill="none" xmlns="http://www.w3.org/2000/svg">
<g clip-path="url(#clip0)">
<path d="M10.4841 40.9226L3 36.469V27.4745H5.35339V35.0411L11.6494 38.7878L10.4841 40.9226Z" fill="#1DB2D5"/>
<path d="M5.35339 20.5257H3V11.5311L10.484 7.07623L11.6495 9.2109L5.35339 12.9588V20.5257Z" fill="#41D6D4"/>
<path d="M17.7448 5.58164L16.5798 3.44668L24.053 -1L31.5259 3.44668L30.3605 5.58164L24.053 1.82822L17.7448 5.58164Z" fill="#4EE4D4"/>
<path d="M45.1053 20.5257H42.7519V12.9588L36.4558 9.2109L37.6212 7.07623L45.1053 11.5311V20.5257Z" fill="#41D6D4"/>
<path d="M37.6212 40.9226L36.4558 38.7878L42.7519 35.0411V27.4745H45.1053V36.469L37.6212 40.9226Z" fill="#1DB2D5"/>
<path d="M24.0529 49.0001L16.5796 44.5519L17.7449 42.4174L24.0529 46.1717L30.3605 42.4174L31.5259 44.5519L24.0529 49.0001Z" fill="#0EA2D5"/>
<path d="M24.0529 5.2829L8.34296 14.633V33.3665L24.0529 42.7172L39.7622 33.3665V14.633L24.0529 5.2829ZM35.4979 15.4065L24.0858 22.1501L12.6126 15.4033L24.0528 8.59432L35.4979 15.4065ZM22.7101 24.6427V29.5716L18.1755 26.8922V21.9762L22.7101 24.6427ZM18.1755 30.1979L22.71 32.8773V38.6064L18.1755 35.9072V30.1979ZM25.4652 32.8772L29.9997 30.1978V35.8658L25.4652 38.5647V32.8772V32.8772ZM29.9997 26.8921L25.4652 29.5714V24.6408L29.9997 21.9613V26.8921ZM11.0983 17.8145L15.4202 20.356V34.2673L11.0983 31.6947V17.8145V17.8145ZM32.755 34.2258V20.3331L37.0068 17.8207V31.6949L32.755 34.2258Z" fill="url(#paint0_linear)"/>
</g>
<defs>
<linearGradient id="paint0_linear" x1="24.0526" y1="5.2829" x2="24.0526" y2="42.7172" gradientUnits="userSpaceOnUse">
<stop stop-color="#51E7D4"/>
<stop offset="1" stop-color="#099CD5"/>
</linearGradient>
<clipPath id="clip0">
<rect width="50" height="50" fill="white"/>
</clipPath>
</defs>
</svg>
