<svg width="13" height="14" viewBox="0 0 13 14" fill="none" xmlns="http://www.w3.org/2000/svg">
<path d="M6.49185 3.45798C4.73024 3.45798 3.27855 4.89336 3.27855 6.67128C3.27855 8.43288 4.71393 9.88458 6.49185 9.88458C8.26976 9.88458 9.70514 8.43288 9.70514 6.67128C9.70514 4.90967 8.25345 3.45798 6.49185 3.45798ZM6.49185 9.00377C5.20326 9.00377 4.15935 7.95986 4.15935 6.67128C4.15935 5.38269 5.20326 4.33878 6.49185 4.33878C7.78043 4.33878 8.82434 5.38269 8.82434 6.67128C8.82434 7.95986 7.78043 9.00377 6.49185 9.00377Z" fill="white"/>
<path d="M11.2873 11.3199C12.054 10.537 12.6085 9.55834 12.9184 8.49812L13 8.20452L11.7604 7.27478C11.7767 7.07905 11.793 6.867 11.793 6.67127C11.793 6.47553 11.7767 6.26349 11.7604 6.06775L13 5.13802L12.9184 4.84442C12.6248 3.78419 12.054 2.82183 11.2873 2.02258L11.0753 1.81054L9.65621 2.41405C9.32999 2.16938 8.97114 1.97365 8.59598 1.81054L8.41656 0.27729L8.12296 0.195734C7.06273 -0.0652447 5.93726 -0.0652447 4.87704 0.195734L4.58344 0.260979L4.40401 1.79423C4.02886 1.95734 3.67001 2.15307 3.34379 2.39774L1.92472 1.79423L1.71267 2.00627C0.946048 2.78921 0.391468 3.76788 0.0815558 4.82811L0 5.12171L1.23965 6.05144C1.22334 6.26349 1.20703 6.45922 1.20703 6.65496C1.20703 6.85069 1.22334 7.06273 1.23965 7.25847L0 8.18821L0.0815558 8.48181C0.375157 9.54203 0.946048 10.5044 1.71267 11.3036L1.92472 11.5157L3.34379 10.9122C3.67001 11.1568 4.02886 11.3526 4.40401 11.5157L4.58344 13.0489L4.87704 13.1142C5.41531 13.2447 5.95358 13.3099 6.50815 13.3099C7.06273 13.3099 7.601 13.2447 8.13927 13.1142L8.43287 13.0489L8.6123 11.5157C8.98745 11.3526 9.3463 11.1568 9.67252 10.9122L11.0916 11.5157L11.2873 11.3199ZM9.50941 9.91719L9.29736 10.0803C8.92221 10.3902 8.49812 10.6349 8.02509 10.8143L7.79674 10.9122L7.61731 12.3639C6.88331 12.5107 6.11669 12.5107 5.36637 12.3639L5.18695 10.9122L4.94228 10.8143C4.48557 10.6349 4.06148 10.3902 3.67001 10.0803L3.45797 9.91719L2.12045 10.4881C1.63112 9.91719 1.23965 9.26474 0.994981 8.54705L2.16939 7.66625L2.12045 7.40527C2.07152 7.1606 2.05521 6.91593 2.05521 6.67127C2.05521 6.4266 2.07152 6.18193 2.12045 5.93726L2.16939 5.67629L0.994981 4.79548C1.23965 4.07779 1.61481 3.42534 2.12045 2.85445L3.45797 3.42534L3.67001 3.26223C4.04517 2.95232 4.46926 2.70765 4.94228 2.52823L5.18695 2.43036L5.36637 0.97867C6.10038 0.831869 6.867 0.831869 7.61731 0.97867L7.79674 2.43036L8.0414 2.52823C8.49812 2.70765 8.92221 2.95232 9.31368 3.26223L9.52572 3.42534L10.8632 2.85445C11.3526 3.42534 11.744 4.0941 11.9887 4.79548L10.8143 5.67629L10.8632 5.93726C10.8959 6.18193 10.9285 6.4266 10.9285 6.67127C10.9285 6.91593 10.9122 7.1606 10.8632 7.40527L10.8143 7.66625L11.9887 8.54705C11.744 9.26474 11.3689 9.91719 10.8632 10.4881L9.50941 9.91719Z" fill="white"/>
</svg>
