<svg width="13" height="13" viewBox="0 0 13 13" fill="none" xmlns="http://www.w3.org/2000/svg">
<g clip-path="url(#clip0)">
<path d="M1 2.5C0.723858 2.5 0.5 2.72386 0.5 3C0.5 3.27614 0.723858 3.5 1 3.5V2.5ZM12 3L12.3983 3.30219L12.6276 3L12.3983 2.69781L12 3ZM10.1225 -0.302193C9.95559 -0.522193 9.64194 -0.565242 9.42194 -0.398346C9.20194 -0.231449 9.1589 0.082193 9.32579 0.302193L10.1225 -0.302193ZM9.32579 5.69781C9.1589 5.91781 9.20194 6.23145 9.42194 6.39835C9.64194 6.56524 9.95559 6.52219 10.1225 6.30219L9.32579 5.69781ZM1 3.5H12V2.5H1V3.5ZM12.3983 2.69781L10.1225 -0.302193L9.32579 0.302193L11.6017 3.30219L12.3983 2.69781ZM11.6017 2.69781L9.32579 5.69781L10.1225 6.30219L12.3983 3.30219L11.6017 2.69781Z" fill="white"/>
<path d="M12 10.5C12.2761 10.5 12.5 10.2761 12.5 10C12.5 9.72386 12.2761 9.5 12 9.5V10.5ZM1 10L0.601655 9.69781L0.372404 10L0.601655 10.3022L1 10ZM2.87752 13.3022C3.04441 13.5222 3.35806 13.5652 3.57806 13.3983C3.79806 13.2314 3.8411 12.9178 3.67421 12.6978L2.87752 13.3022ZM3.67421 7.30219C3.8411 7.08219 3.79806 6.76855 3.57806 6.60165C3.35806 6.43476 3.04441 6.47781 2.87752 6.69781L3.67421 7.30219ZM12 9.5L1 9.5V10.5L12 10.5V9.5ZM0.601655 10.3022L2.87752 13.3022L3.67421 12.6978L1.39835 9.69781L0.601655 10.3022ZM1.39835 10.3022L3.67421 7.30219L2.87752 6.69781L0.601655 9.69781L1.39835 10.3022Z" fill="white"/>
</g>
<defs>
<clipPath id="clip0">
<rect width="13" height="13" fill="white"/>
</clipPath>
</defs>
</svg>
