<?xml version="1.0" encoding="UTF-8"?>
<svg width="30px" height="30px" viewBox="0 0 30 30" version="1.1" xmlns="http://www.w3.org/2000/svg" xmlns:xlink="http://www.w3.org/1999/xlink">
    <title>Slice 1</title>
    <defs>
        <polygon id="path-1" points="4.07692308 6.34178158 2.97039149 6.34178158 2.97039149 2.77856354 0.010113257 1.01370849 0.558120458 0.00850731296 4.07692308 2.10628561"></polygon>
        <path d="M7.46165038,0.0355007267 L0.0377180769,4.43685707 L0.0377180769,13.2552648 L7.46165038,17.6568194 L14.8852718,13.2552648 L14.8852718,4.43685707 L7.46165038,0.0355007267 Z M12.870159,4.80097756 L7.47720769,7.97536899 L2.05539269,4.79946628 L7.46161308,1.59427933 L12.870159,4.80097756 Z M6.82709628,9.14869569 L6.82709628,11.4688521 L4.68425436,10.2075488 L4.68425436,7.89348709 L6.82709628,9.14869569 Z M4.68420462,11.7636764 L6.82704654,13.0249797 L6.82704654,15.7218795 L4.68420462,14.4512856 L4.68420462,11.7636764 Z M8.12909744,13.0249797 L10.2719269,11.7636764 L10.2719269,14.4317132 L8.12909744,15.7021833 L8.12909744,13.0249797 Z M10.2719269,10.2075488 L8.12909744,11.4687282 L8.12909744,9.14781617 L10.2719269,7.88650049 L10.2719269,10.2075488 Z M1.33981872,5.93450297 L3.38215372,7.13085818 L3.38215372,13.6792916 L1.33981872,12.4682819 L1.33981872,5.93450297 Z M11.5739654,13.6597193 L11.5739654,7.12005621 L13.5832333,5.93738928 L13.5832333,12.4684058 L11.5739654,13.6597193 Z" id="path-3"></path>
    </defs>
    <g id="Page-1" stroke="none" stroke-width="1" fill="none" fill-rule="evenodd">
        <g id="Group">
            <circle id="Oval" fill="#0056E9" cx="15" cy="15" r="15"></circle>
            <g id="hodl_badge" transform="translate(5.076923, 3.177885)">
                <polygon id="Path" fill="#FFFFFF" fill-rule="nonzero" points="3.5276738 19.7451923 0 17.6563702 0 13.4375 1.10927639 13.4375 1.10927639 16.9866338 4.07692308 18.7439204"></polygon>
                <polygon id="Path" fill="#FFFFFF" fill-rule="nonzero" points="1.10926289 10.1298077 0 10.1298077 0 5.91142013 3.52754404 3.82211538 4.07692308 4.82325626 1.10926289 6.58098254"></polygon>
                <polygon id="Path" fill="#FFFFFF" fill-rule="nonzero" points="6.9362413 3.12980769 6.38461538 2.13171645 9.92317038 0.0528846154 13.4615385 2.13171645 12.9097879 3.12980769 9.92317038 1.37507747"></polygon>
                <polygon id="Path" fill="#FFFFFF" fill-rule="nonzero" points="19.8461538 10.1298077 18.7368706 10.1298077 18.7368706 6.58098254 15.7692308 4.82325626 16.3186007 3.82211538 19.8461538 5.91142013"></polygon>
                <g id="Clipped" transform="translate(15.769231, 3.822115)">
                    <mask id="mask-2" fill="white">
                        <use xlink:href="#path-1"></use>
                    </mask>
                    <g id="Path"></g>
                    <path d="M4.07692308,6.34178158 L4.07692308,12.5377526 L10.2635025,12.5377526 L10.2635025,6.34178158 L4.07692308,6.34178158 Z M2.97039149,6.34178158 L-3.21618789,6.34178158 L-3.21618789,12.5377526 L2.97039149,12.5377526 L2.97039149,6.34178158 Z M2.97039149,2.77856354 L9.15697087,2.77856354 L9.15697087,-0.743822887 L6.13482684,-2.54554411 L2.97039149,2.77856354 Z M0.010113257,1.01370849 L-5.41995882,-1.9552392 L-8.27606743,3.28435507 L-3.15432209,6.33781614 L0.010113257,1.01370849 Z M0.558120458,0.00850731296 L3.72243208,-5.31563751 L-1.79513061,-8.60500493 L-4.87202586,-2.96045029 L0.558120458,0.00850731296 Z M4.07692308,2.10628561 L10.2635025,2.10628561 L10.2635025,-1.41615039 L7.24135843,-3.21785674 L4.07692308,2.10628561 Z M4.07692308,0.145785796 L2.97039149,0.145785796 L2.97039149,12.5377526 L4.07692308,12.5377526 L4.07692308,0.145785796 Z M9.15697087,6.34178158 L9.15697087,2.77856354 L-3.21618789,2.77856354 L-3.21618789,6.34178158 L9.15697087,6.34178158 Z M6.13482684,-2.54554411 L3.17454861,-4.31038553 L-3.15432209,6.33781614 L-0.194043863,8.1026588 L6.13482684,-2.54554411 Z M5.44019771,3.98266858 L5.98820491,2.9774674 L-4.87202586,-2.96045029 L-5.41995882,-1.9552392 L5.44019771,3.98266858 Z M-2.60631489,5.33265214 L0.912487725,7.43044282 L7.24135843,-3.21785674 L3.72243208,-5.31563751 L-2.60631489,5.33265214 Z M-2.1096563,2.10628561 L-2.1096563,6.34178158 L10.2635025,6.34178158 L10.2635025,2.10628561 L-2.1096563,2.10628561 Z" id="Shape" fill="#FFFFFF" fill-rule="nonzero" mask="url(#mask-2)"></path>
                </g>
                <polygon id="Path" fill="#FFFFFF" fill-rule="nonzero" points="16.3186007 19.7451923 15.7692308 18.7439204 18.7368706 16.9866338 18.7368706 13.4375 19.8461538 13.4375 19.8461538 17.6563702"></polygon>
                <polygon id="Path" fill="#FFFFFF" fill-rule="nonzero" points="9.92320776 23.5144231 6.38461538 21.4352182 6.93642043 20.4375 9.92320776 22.1923327 12.9097957 20.4375 13.4615385 21.4352182"></polygon>
                <path d="M9.84630847,3.05288462 L2.46153846,7.45275879 L2.46153846,16.2681969 L9.84630847,20.6682692 L17.2307692,16.2681969 L17.2307692,7.45275879 L9.84630847,3.05288462 Z M15.2262864,7.81675667 L9.86178372,10.9900791 L4.46856956,7.81524589 L9.84627136,4.6111383 L15.2262864,7.81675667 Z M9.21510174,12.1630107 L9.21510174,14.4823857 L7.08356361,13.2215072 L7.08356361,10.9082248 L9.21510174,12.1630107 Z M7.08351413,14.7771108 L9.21505225,16.0379894 L9.21505225,18.733981 L7.08351413,17.4638149 L7.08351413,14.7771108 Z M10.5102346,16.0379894 L12.6417604,14.7771108 L12.6417604,17.4442491 L10.5102346,18.7142914 L10.5102346,16.0379894 Z M12.6417604,13.2215072 L10.5102346,14.4822619 L10.5102346,12.1621315 L12.6417604,10.9012405 L12.6417604,13.2215072 Z M3.75677034,8.94990036 L5.78833173,10.1458527 L5.78833173,16.692081 L3.75677034,15.481479 L3.75677034,8.94990036 Z M13.9369304,16.6725152 L13.9369304,10.1350544 L15.9355992,8.95278569 L15.9355992,15.4816029 L13.9369304,16.6725152 Z" id="Shape" fill="#FFFFFF" fill-rule="nonzero"></path>
                <g id="Clipped" transform="translate(2.461538, 2.975962)">
                    <mask id="mask-4" fill="white">
                        <use xlink:href="#path-3"></use>
                    </mask>
                    <g id="Shape"></g>
                    <path d="M7.46165038,0.0355007267 L9.36977718,-3.15792545 L7.46168769,-4.28920128 L5.55358577,-3.15795518 L7.46165038,0.0355007267 Z M0.0377180769,4.43685707 L-1.87035027,1.24340116 L-3.69304618,2.32400683 L-3.69304618,4.43685707 L0.0377180769,4.43685707 Z M0.0377180769,13.2552648 L-3.69304618,13.2552648 L-3.69304618,15.3679664 L-1.87043856,16.4486588 L0.0377180769,13.2552648 Z M7.46165038,17.6568194 L5.55349872,20.8503372 L7.46168769,21.9816948 L9.36986423,20.8502133 L7.46165038,17.6568194 Z M14.8852718,13.2552648 L16.7935603,16.4486588 L18.616041,15.3679664 L18.616041,13.2552648 L14.8852718,13.2552648 Z M14.8852718,4.43685707 L18.616041,4.43685707 L18.616041,2.32404399 L16.7934359,1.24342593 L14.8852718,4.43685707 Z M12.870159,4.80097756 L14.7681256,8.00041667 L20.183959,4.81255995 L14.7783231,1.6075712 L12.870159,4.80097756 Z M7.47720769,7.97536899 L5.58608077,11.1788588 L7.48182141,12.2892814 L9.37517436,11.1747709 L7.47720769,7.97536899 Z M2.05539269,4.79946628 L0.147303205,1.60602276 L-5.27165154,4.81875374 L0.164265769,8.00290657 L2.05539269,4.79946628 Z M7.46161308,1.59427933 L9.36976474,-1.59912702 L7.46165038,-2.7304363 L5.55351115,-1.59916419 L7.46161308,1.59427933 Z M6.82709628,9.14869569 L10.5578282,9.14869569 L10.5578282,7.02283849 L8.71822321,5.945243 L6.82709628,9.14869569 Z M6.82709628,11.4688521 L4.92917936,14.6683159 L10.5578282,17.9813739 L10.5578282,11.4688521 L6.82709628,11.4688521 Z M4.68425436,10.2075488 L0.953485128,10.2075488 L0.953485128,12.3283023 L2.78633744,13.4070127 L4.68425436,10.2075488 Z M4.68425436,7.89348709 L6.57538128,4.69004679 L0.953485128,1.3969452 L0.953485128,7.89348709 L4.68425436,7.89348709 Z M4.68420462,11.7636764 L6.5821091,8.56424971 L0.953435385,5.25124128 L0.953435385,11.7636764 L4.68420462,11.7636764 Z M6.82704654,13.0249797 L10.5578282,13.0249797 L10.5578282,10.9043501 L8.72495103,9.82551584 L6.82704654,13.0249797 Z M6.82704654,15.7218795 L4.91875808,18.9151496 L10.5578282,22.2588049 L10.5578282,15.7218795 L6.82704654,15.7218795 Z M4.68420462,14.4512856 L0.953435385,14.4512856 L0.953435385,16.5638633 L2.77591615,17.6445557 L4.68420462,14.4512856 Z M8.12909744,13.0249797 L6.23116808,9.82551584 L4.39832821,10.9043501 L4.39832821,13.0249797 L8.12909744,13.0249797 Z M10.2719269,11.7636764 L14.0026962,11.7636764 L14.0026962,5.2511174 L8.37396026,8.56422494 L10.2719269,11.7636764 Z M10.2719269,14.4317132 L12.180091,17.6251072 L14.0026962,16.5445386 L14.0026962,14.4317132 L10.2719269,14.4317132 Z M8.12909744,15.7021833 L4.39832821,15.7021833 L4.39832821,22.2388609 L10.0372615,18.8955772 L8.12909744,15.7021833 Z M10.2719269,10.2075488 L12.1697692,13.4070127 L14.0026962,12.3281784 L14.0026962,10.2075488 L10.2719269,10.2075488 Z M8.12909744,11.4687282 L4.39832821,11.4687282 L4.39832821,17.98125 L10.0269397,14.6681921 L8.12909744,11.4687282 Z M8.12909744,9.14781617 L6.2311059,5.94840183 L4.39832821,7.0272237 L4.39832821,9.14781617 L8.12909744,9.14781617 Z M10.2719269,7.88650049 L14.0026962,7.88650049 L14.0026962,1.37384237 L8.37391051,4.68708616 L10.2719269,7.88650049 Z M1.33981872,5.93450297 L3.23098295,2.73107506 L-2.39095039,-0.562138018 L-2.39095039,5.93450297 L1.33981872,5.93450297 Z M3.38215372,7.13085818 L7.11292295,7.13085818 L7.11292295,5.00503815 L5.27331795,3.92743027 L3.38215372,7.13085818 Z M3.38215372,13.6792916 L1.47390256,16.8725617 L7.11292295,20.216217 L7.11292295,13.6792916 L3.38215372,13.6792916 Z M1.33981872,12.4682819 L-2.39095039,12.4682819 L-2.39095039,14.5809835 L-0.568432436,15.6616759 L1.33981872,12.4682819 Z M11.5739654,13.6597193 L7.84322103,13.6597193 L7.84322103,20.1966447 L13.4822538,16.8531132 L11.5739654,13.6597193 Z M11.5739654,7.12005621 L9.67604846,3.9206171 L7.84322103,4.99943896 L7.84322103,7.12005621 L11.5739654,7.12005621 Z M13.5832333,5.93738928 L17.3140026,5.93738928 L17.3140026,-0.575182139 L11.6852667,2.73796256 L13.5832333,5.93738928 Z M13.5832333,12.4684058 L15.4915218,15.6616759 L17.3140026,14.5811074 L17.3140026,12.4684058 L13.5832333,12.4684058 Z M5.55358577,-3.15795518 L-1.87035027,1.24340116 L1.94579513,7.63031298 L9.36972744,3.22895663 L5.55358577,-3.15795518 Z M-3.69304618,4.43685707 L-3.69304618,13.2552648 L3.76848731,13.2552648 L3.76848731,4.43685707 L-3.69304618,4.43685707 Z M-1.87043856,16.4486588 L5.55349872,20.8503372 L9.36981449,14.4634254 L1.94588218,10.0618708 L-1.87043856,16.4486588 Z M9.36986423,20.8502133 L16.7935603,16.4486588 L12.9771077,10.0618708 L5.55343654,14.4635493 L9.36986423,20.8502133 Z M18.616041,13.2552648 L18.616041,4.43685707 L11.1545026,4.43685707 L11.1545026,13.2552648 L18.616041,13.2552648 Z M16.7934359,1.24342593 L9.36977718,-3.15792545 L5.55353603,3.22893186 L12.9772321,7.6302882 L16.7934359,1.24342593 Z M10.9721923,1.60155084 L5.57925346,4.77592988 L9.37517436,11.1747709 L14.7681256,8.00041667 L10.9721923,1.60155084 Z M9.36833462,4.7719163 L3.94651962,1.59601359 L0.164265769,8.00290657 L5.58608077,11.1788588 L9.36833462,4.7719163 Z M3.96349462,7.9929098 L9.36970256,4.78773524 L5.55351115,-1.59916419 L0.147303205,1.60602276 L3.96349462,7.9929098 Z M5.55346141,4.78769808 L10.9619949,7.99439631 L14.7783231,1.6075712 L9.36976474,-1.59912702 L5.55346141,4.78769808 Z M3.09632705,9.14869569 L3.09632705,11.4688521 L10.5578282,11.4688521 L10.5578282,9.14869569 L3.09632705,9.14869569 Z M8.72500077,8.26940056 L6.58215885,7.00813444 L2.78633744,13.4070127 L4.92917936,14.6683159 L8.72500077,8.26940056 Z M8.41502359,10.2075488 L8.41502359,7.89348709 L0.953485128,7.89348709 L0.953485128,10.2075488 L8.41502359,10.2075488 Z M2.79312744,11.0969769 L4.93596936,12.3520864 L8.71822321,5.945243 L6.57538128,4.69004679 L2.79312744,11.0969769 Z M2.78630013,14.9631403 L4.92914205,16.2244436 L8.72495103,9.82551584 L6.5821091,8.56424971 L2.78630013,14.9631403 Z M3.09627731,13.0249797 L3.09627731,15.7218795 L10.5578282,15.7218795 L10.5578282,13.0249797 L3.09627731,13.0249797 Z M8.735335,12.5284856 L6.59249308,11.2578916 L2.77591615,17.6445557 L4.91875808,18.9151496 L8.735335,12.5284856 Z M8.41497385,14.4512856 L8.41497385,11.7636764 L0.953435385,11.7636764 L0.953435385,14.4512856 L8.41497385,14.4512856 Z M10.0270641,16.2243197 L12.1698936,14.9631403 L8.37396026,8.56422494 L6.23116808,9.82551584 L10.0270641,16.2243197 Z M6.54113282,11.7636764 L6.54113282,14.4317132 L14.0026962,14.4317132 L14.0026962,11.7636764 L6.54113282,11.7636764 Z M8.36373795,11.2383192 L6.22093333,12.5087893 L10.0372615,18.8955772 L12.180091,17.6251072 L8.36373795,11.2383192 Z M11.8598667,15.7021833 L11.8598667,13.0249797 L4.39832821,13.0249797 L4.39832821,15.7021833 L11.8598667,15.7021833 Z M8.37401,7.0080725 L6.23121782,8.26930146 L10.0269397,14.6681921 L12.1697692,13.4070127 L8.37401,7.0080725 Z M11.8598667,11.4687282 L11.8598667,9.14781617 L4.39832821,9.14781617 L4.39832821,11.4687282 L11.8598667,11.4687282 Z M10.0270641,12.3472553 L12.1698936,11.085952 L8.37391051,4.68708616 L6.2311059,5.94840183 L10.0270641,12.3472553 Z M6.54113282,7.88650049 L6.54113282,10.2075488 L14.0026962,10.2075488 L14.0026962,7.88650049 L6.54113282,7.88650049 Z M-0.551345513,9.13791849 L1.49098949,10.3342737 L5.27331795,3.92743027 L3.23098295,2.73107506 L-0.551345513,9.13791849 Z M-0.348615513,7.13085818 L-0.348615513,13.6792916 L7.11292295,13.6792916 L7.11292295,7.13085818 L-0.348615513,7.13085818 Z M5.29040487,10.4858977 L3.24806987,9.2749375 L-0.568432436,15.6616759 L1.47390256,16.8725617 L5.29040487,10.4858977 Z M5.07058795,12.4682819 L5.07058795,5.93450297 L-2.39095039,5.93450297 L-2.39095039,12.4682819 L5.07058795,12.4682819 Z M15.3047346,13.6597193 L15.3047346,7.12005621 L7.84322103,7.12005621 L7.84322103,13.6597193 L15.3047346,13.6597193 Z M13.4719321,10.3195325 L15.4812,9.13682839 L11.6852667,2.73796256 L9.67604846,3.9206171 L13.4719321,10.3195325 Z M9.85245167,5.93738928 L9.85245167,12.4684058 L17.3140026,12.4684058 L17.3140026,5.93738928 L9.85245167,5.93738928 Z M11.6749449,9.27502422 L9.6657391,10.4663253 L13.4822538,16.8531132 L15.4915218,15.6616759 L11.6749449,9.27502422 Z" id="Shape" fill="#FFFFFF" fill-rule="nonzero" mask="url(#mask-4)"></path>
                </g>
            </g>
        </g>
    </g>
</svg>